<svg width="170" height="48" viewBox="0 0 170 48" fill="none" xmlns="http://www.w3.org/2000/svg">
<path d="M57.084 16.1045H62.333L64.2251 26.1021L66.9839 16.1045H72.2207L74.9917 26.1021L76.8838 16.1045H82.1084L78.1655 34H72.7456L69.6084 22.7329L66.4834 34H61.0635L57.084 16.1045ZM82.647 16.1045H88.189V34H82.647V16.1045ZM90.7417 34V16.1045H99.958C101.667 16.1045 102.973 16.251 103.876 16.5439C104.78 16.8369 105.508 17.3822 106.062 18.1797C106.615 18.9691 106.892 19.9334 106.892 21.0728C106.892 22.0656 106.68 22.9242 106.257 23.6484C105.834 24.3646 105.252 24.9465 104.511 25.394C104.039 25.6789 103.392 25.9149 102.57 26.1021C103.229 26.3218 103.71 26.5415 104.011 26.7612C104.214 26.9077 104.507 27.221 104.89 27.7012C105.28 28.1813 105.541 28.5516 105.671 28.812L108.344 34H102.094L99.1401 28.5312C98.7658 27.8232 98.4321 27.3634 98.1392 27.1519C97.7404 26.8752 97.2887 26.7368 96.7842 26.7368H96.2959V34H90.7417ZM96.2959 23.3555H98.6274C98.8797 23.3555 99.368 23.2741 100.092 23.1113C100.458 23.0381 100.756 22.8509 100.983 22.5498C101.219 22.2487 101.337 21.9028 101.337 21.5122C101.337 20.9344 101.154 20.4909 100.788 20.1816C100.422 19.8724 99.7342 19.7178 98.7251 19.7178H96.2959V23.3555ZM119.637 31.0459H113.338L112.472 34H106.82L113.546 16.1045H119.576L126.302 34H120.516L119.637 31.0459ZM118.478 27.1763L116.5 20.7432L114.535 27.1763H118.478ZM126.621 16.1045H131.785L138.523 26.0044V16.1045H143.735V34H138.523L131.821 24.1733V34H126.621V16.1045ZM154.906 27.5181V23.7949H163.451V31.4243C161.815 32.5392 160.367 33.3001 159.105 33.707C157.852 34.1058 156.363 34.3052 154.638 34.3052C152.514 34.3052 150.78 33.943 149.438 33.2188C148.103 32.4945 147.065 31.4162 146.325 29.9839C145.592 28.5516 145.226 26.9077 145.226 25.0522C145.226 23.0991 145.629 21.4023 146.435 19.9619C147.24 18.5133 148.42 17.4147 149.975 16.666C151.187 16.0882 152.819 15.7993 154.87 15.7993C156.847 15.7993 158.324 15.9784 159.301 16.3364C160.285 16.6945 161.099 17.252 161.742 18.0088C162.393 18.7575 162.882 19.7096 163.207 20.8652L157.873 21.8174C157.653 21.1419 157.278 20.6252 156.75 20.2671C156.229 19.909 155.561 19.73 154.748 19.73C153.535 19.73 152.567 20.1532 151.842 20.9995C151.126 21.8377 150.768 23.1683 150.768 24.9912C150.768 26.9281 151.13 28.3115 151.854 29.1416C152.587 29.9717 153.604 30.3867 154.906 30.3867C155.525 30.3867 156.115 30.2972 156.676 30.1182C157.238 29.9391 157.881 29.634 158.605 29.2026V27.5181H154.906Z" fill="#171717"/>
<path d="M38.5089 7.5C39.5215 7.5 40.3422 8.32082 40.3422 9.33333V19.4167C37.811 19.4167 35.7589 21.4687 35.7589 24C35.7589 26.5313 37.811 28.5833 40.3422 28.5833V38.6667C40.3422 39.6792 39.5215 40.5 38.5089 40.5H5.50887C4.49636 40.5 3.67554 39.6792 3.67554 38.6667V28.5833C6.20684 28.5833 8.25887 26.5313 8.25887 24C8.25887 21.4687 6.20684 19.4167 3.67554 19.4167V9.33333C3.67554 8.32082 4.49636 7.5 5.50887 7.5H38.5089ZM36.6756 11.1667H7.3422V16.608L7.628 16.7566C10.0821 18.0986 11.7794 20.6514 11.9166 23.6117L11.9255 24C11.9255 27.1244 10.1888 29.843 7.628 31.2433L7.3422 31.3902V36.8333H36.6756V31.3902L36.3898 31.2433C33.9357 29.9015 32.2384 27.3486 32.1012 24.3883L32.0922 24C32.0922 20.8756 33.829 18.1569 36.3898 16.7566L36.6756 16.608V11.1667ZM29.3422 18.5V29.5H14.6755V18.5H29.3422Z" fill="#404040"/>
</svg>
