<svg width="170" height="48" viewBox="0 0 170 48" fill="none" xmlns="http://www.w3.org/2000/svg">
<path d="M66.4052 34V16.5455H73.6837C74.9905 16.5455 76.0842 16.7301 76.9649 17.0994C77.8513 17.4687 78.516 17.9858 78.9592 18.6506C79.4081 19.3153 79.6325 20.0852 79.6325 20.9602C79.6325 21.625 79.4933 22.2188 79.2149 22.7415C78.9365 23.2585 78.553 23.6875 78.0643 24.0284C77.5757 24.3693 77.0104 24.608 76.3683 24.7443V24.9148C77.0729 24.9489 77.7234 25.1392 78.32 25.4858C78.9223 25.8324 79.4052 26.3153 79.7689 26.9347C80.1325 27.5483 80.3143 28.2756 80.3143 29.1165C80.3143 30.054 80.0757 30.892 79.5984 31.6307C79.1212 32.3636 78.4308 32.9432 77.5274 33.3693C76.624 33.7898 75.5274 34 74.2376 34H66.4052ZM70.624 30.5994H73.2319C74.1467 30.5994 74.82 30.4261 75.2518 30.0795C75.6893 29.733 75.9081 29.25 75.9081 28.6307C75.9081 28.1818 75.803 27.7955 75.5927 27.4716C75.3825 27.142 75.0842 26.8892 74.6979 26.7131C74.3115 26.5312 73.8484 26.4403 73.3087 26.4403H70.624V30.5994ZM70.624 23.7216H72.9592C73.4194 23.7216 73.8285 23.6449 74.1865 23.4915C74.5444 23.3381 74.8229 23.1165 75.0217 22.8267C75.2263 22.5369 75.3285 22.1875 75.3285 21.7784C75.3285 21.1932 75.1212 20.733 74.7064 20.3977C74.2916 20.0625 73.7319 19.8949 73.0274 19.8949H70.624V23.7216ZM80.9027 34V20.9091H85.0704V34H80.9027ZM82.9908 19.3835C82.4056 19.3835 81.9027 19.1903 81.4823 18.804C81.0618 18.4119 80.8516 17.9403 80.8516 17.3892C80.8516 16.8437 81.0618 16.3778 81.4823 15.9915C81.9027 15.5994 82.4056 15.4034 82.9908 15.4034C83.5817 15.4034 84.0846 15.5994 84.4993 15.9915C84.9198 16.3778 85.13 16.8437 85.13 17.3892C85.13 17.9403 84.9198 18.4119 84.4993 18.804C84.0846 19.1903 83.5817 19.3835 82.9908 19.3835ZM93.6723 20.9091V23.9773H85.4137V20.9091H93.6723ZM87.1439 17.7727H91.3115V29.8835C91.3115 30.1392 91.3512 30.3466 91.4308 30.5057C91.516 30.6591 91.6382 30.7699 91.7973 30.8381C91.9564 30.9006 92.1467 30.9318 92.3683 30.9318C92.5274 30.9318 92.695 30.9176 92.8711 30.8892C93.0529 30.8551 93.1893 30.8267 93.2802 30.804L93.9109 33.8125C93.712 33.8693 93.4308 33.9403 93.0671 34.0256C92.7092 34.1108 92.2802 34.1648 91.7802 34.1875C90.8029 34.233 89.9649 34.1193 89.266 33.8466C88.5728 33.5682 88.0416 33.1364 87.6723 32.5511C87.3086 31.9659 87.1325 31.2301 87.1439 30.3438V17.7727ZM101.748 20.9091V23.9773H93.4894V20.9091H101.748ZM95.2195 17.7727H99.3871V29.8835C99.3871 30.1392 99.4269 30.3466 99.5064 30.5057C99.5916 30.6591 99.7138 30.7699 99.8729 30.8381C100.032 30.9006 100.222 30.9318 100.444 30.9318C100.603 30.9318 100.771 30.9176 100.947 30.8892C101.129 30.8551 101.265 30.8267 101.356 30.804L101.987 33.8125C101.788 33.8693 101.506 33.9403 101.143 34.0256C100.785 34.1108 100.356 34.1648 99.8558 34.1875C98.8786 34.233 98.0405 34.1193 97.3416 33.8466C96.6485 33.5682 96.1172 33.1364 95.7479 32.5511C95.3842 31.9659 95.2081 31.2301 95.2195 30.3438V17.7727ZM108.413 34.2472C107.044 34.2472 105.862 33.9773 104.868 33.4375C103.879 32.892 103.118 32.1165 102.583 31.1108C102.055 30.0994 101.791 28.8977 101.791 27.5057C101.791 26.1534 102.058 24.9716 102.592 23.9602C103.126 22.9432 103.879 22.1534 104.85 21.5909C105.822 21.0227 106.967 20.7386 108.285 20.7386C109.217 20.7386 110.069 20.8835 110.842 21.1733C111.615 21.4631 112.282 21.892 112.845 22.4602C113.407 23.0284 113.845 23.7301 114.157 24.5653C114.47 25.3949 114.626 26.3466 114.626 27.4205V28.4602H103.248V26.0398H110.748C110.743 25.5966 110.637 25.2017 110.433 24.8551C110.228 24.5085 109.947 24.2386 109.589 24.0455C109.237 23.8466 108.831 23.7472 108.37 23.7472C107.904 23.7472 107.487 23.8523 107.118 24.0625C106.748 24.267 106.456 24.5483 106.24 24.9062C106.024 25.2585 105.91 25.6591 105.899 26.108V28.571C105.899 29.1051 106.004 29.5739 106.214 29.9773C106.424 30.375 106.723 30.6847 107.109 30.9062C107.495 31.1278 107.956 31.2386 108.49 31.2386C108.859 31.2386 109.194 31.1875 109.495 31.0852C109.797 30.983 110.055 30.8324 110.271 30.6335C110.487 30.4347 110.649 30.1903 110.757 29.9006L114.583 30.0114C114.424 30.8693 114.075 31.6165 113.535 32.2528C113.001 32.8835 112.299 33.375 111.43 33.7273C110.561 34.0739 109.555 34.2472 108.413 34.2472ZM115.315 34V20.9091H119.363V23.2955H119.499C119.738 22.4318 120.127 21.7898 120.667 21.3693C121.207 20.9432 121.835 20.7301 122.55 20.7301C122.744 20.7301 122.942 20.7443 123.147 20.7727C123.352 20.7955 123.542 20.8324 123.718 20.8835V24.5057C123.519 24.4375 123.258 24.3835 122.934 24.3438C122.616 24.304 122.332 24.2841 122.082 24.2841C121.587 24.2841 121.141 24.3949 120.744 24.6165C120.352 24.8324 120.042 25.1364 119.815 25.5284C119.593 25.9148 119.482 26.3693 119.482 26.892V34H115.315ZM124.769 34V16.5455H135.235V18.4205H126.882V24.3182H134.451V26.1932H126.882V34H124.769ZM139.153 16.5455V34H137.142V16.5455H139.153ZM142.693 38.9091C142.352 38.9091 142.048 38.8807 141.781 38.8239C141.514 38.7727 141.329 38.7216 141.227 38.6705L141.738 36.8977C142.227 37.0227 142.659 37.0682 143.034 37.0341C143.409 37 143.741 36.8324 144.031 36.5312C144.326 36.2358 144.596 35.7557 144.84 35.0909L145.215 34.0682L140.375 20.9091H142.556L146.17 31.3409H146.306L149.92 20.9091H152.102L146.545 35.9091C146.295 36.5852 145.985 37.1449 145.616 37.5881C145.247 38.0369 144.818 38.3693 144.329 38.5852C143.846 38.8011 143.301 38.9091 142.693 38.9091Z" fill="#171717"/>
<path d="M25.6667 18.4036L40.3333 27.6667V31.3334L25.6667 26.7019V36.5278L31.1667 39.5834V42.3334L22.9167 40.5001L14.6667 42.3334V39.5834L20.1667 36.5278V26.7019L5.5 31.3334V27.6667L20.1667 18.4036V8.41675C20.1667 6.89796 21.3979 5.66675 22.9167 5.66675C24.4354 5.66675 25.6667 6.89796 25.6667 8.41675V18.4036Z" fill="#404040"/>
</svg>
