<svg width="170" height="48" viewBox="0 0 170 48" fill="none" xmlns="http://www.w3.org/2000/svg">
<path d="M59.8652 19.729L62.8438 28.5547L65.6636 19.729H63.9668V16.604H70.5952V19.729H68.8984L71.9136 28.5547L74.8188 19.729H72.9634V16.604H80.3486V19.729H78.3467L73.2441 35.0977H69.8384L66.9453 26.6992L64.1987 35.0977H60.6709L55.4219 19.729H53.4688V16.604H61.7695V19.729H59.8652ZM89.4077 27.2974V32.0459H91.4829V35H85.3306V33.999C84.1668 34.7965 83.0031 35.1953 81.8394 35.1953C80.4315 35.1953 79.3044 34.8332 78.458 34.1089C77.6117 33.3846 77.1885 32.408 77.1885 31.1792C77.1885 29.8771 77.6605 28.8354 78.6045 28.0542C79.5566 27.2648 80.818 26.8701 82.3887 26.8701C82.9339 26.8701 83.4181 26.9312 83.8413 27.0532C84.2726 27.1672 84.769 27.3665 85.3306 27.6514V26.626C85.3306 25.9749 85.1271 25.4541 84.7202 25.0635C84.3133 24.6729 83.703 24.4775 82.8892 24.4775C82.0021 24.4775 81.2168 24.8193 80.5332 25.5029L77.2373 24.9048C78.2383 22.8866 80.3053 21.8774 83.4385 21.8774C85.5869 21.8774 87.1169 22.321 88.0283 23.208C88.9479 24.0869 89.4077 25.45 89.4077 27.2974ZM82.7549 32.644C83.4873 32.644 84.3459 32.2046 85.3306 31.3257V30.1782C84.4517 29.6086 83.646 29.3237 82.9136 29.3237C82.3276 29.3237 81.88 29.4621 81.5708 29.7388C81.2616 30.0155 81.1069 30.4102 81.1069 30.9229C81.1069 32.0703 81.6562 32.644 82.7549 32.644ZM105.107 26.8213V32.0459H107.036V35H101.006V27.1509C101.006 26.5487 100.912 26.1133 100.725 25.8447C100.546 25.568 100.241 25.4297 99.8096 25.4297C99.0283 25.4297 98.243 25.7104 97.4536 26.272V32.0459H99.4556V35H91.4355V32.0459H93.3887V25.1733H91.4355V22.1704H97.4536V23.3789C98.6743 22.4593 99.9276 21.9995 101.213 21.9995C102.491 21.9995 103.459 22.4064 104.119 23.2202C104.778 24.0259 105.107 25.2262 105.107 26.8213ZM126.631 19.729H124.263V16.604H132.479V19.729H129.915V35.1221H125.838L117.879 21.4746V31.875H120.186V35H112.129V31.875H114.607V19.729H112.129V16.604H119.856L126.631 28.103V19.729ZM143.344 27.2974V32.0459H145.419V35H139.267V33.999C138.103 34.7965 136.94 35.1953 135.776 35.1953C134.368 35.1953 133.241 34.8332 132.395 34.1089C131.548 33.3846 131.125 32.408 131.125 31.1792C131.125 29.8771 131.597 28.8354 132.541 28.0542C133.493 27.2648 134.755 26.8701 136.325 26.8701C136.87 26.8701 137.355 26.9312 137.778 27.0532C138.209 27.1672 138.706 27.3665 139.267 27.6514V26.626C139.267 25.9749 139.064 25.4541 138.657 25.0635C138.25 24.6729 137.639 24.4775 136.826 24.4775C135.939 24.4775 135.153 24.8193 134.47 25.5029L131.174 24.9048C132.175 22.8866 134.242 21.8774 137.375 21.8774C139.523 21.8774 141.053 22.321 141.965 23.208C142.884 24.0869 143.344 25.45 143.344 27.2974ZM136.691 32.644C137.424 32.644 138.282 32.2046 139.267 31.3257V30.1782C138.388 29.6086 137.583 29.3237 136.85 29.3237C136.264 29.3237 135.817 29.4621 135.507 29.7388C135.198 30.0155 135.043 30.4102 135.043 30.9229C135.043 32.0703 135.593 32.644 136.691 32.644ZM151.646 18.5205C151.646 19.1715 151.423 19.7127 150.975 20.144C150.536 20.5672 150.011 20.7788 149.4 20.7788C148.782 20.7788 148.249 20.5591 147.801 20.1196C147.362 19.672 147.142 19.139 147.142 18.5205C147.142 17.9102 147.362 17.3853 147.801 16.9458C148.249 16.4982 148.782 16.2744 149.4 16.2744C150.011 16.2744 150.536 16.4982 150.975 16.9458C151.423 17.3853 151.646 17.9102 151.646 18.5205ZM153.294 32.0459V35H145.372V32.0459H147.325V25.1733H145.372V22.1704H151.39V32.0459H153.294ZM166.992 26.8213V32.0459H168.921V35H162.891V27.1509C162.891 26.5487 162.797 26.1133 162.61 25.8447C162.431 25.568 162.126 25.4297 161.694 25.4297C160.913 25.4297 160.128 25.7104 159.338 26.272V32.0459H161.34V35H153.32V32.0459H155.273V25.1733H153.32V22.1704H159.338V23.3789C160.559 22.4593 161.812 21.9995 163.098 21.9995C164.376 21.9995 165.344 22.4064 166.003 23.2202C166.663 24.0259 166.992 25.2262 166.992 26.8213Z" fill="#171717"/>
<path d="M16.5001 22.1667L16.5011 7.5H13.4073L9.16675 8.63626V12.9056L12.8334 11.9183V22.1667H16.5001ZM40.3334 16.6667L33.0001 7.5L25.6667 16.6667H31.1667V40.5H34.8334V16.6667H40.3334ZM14.6667 32.25C13.6542 32.25 12.8334 31.4292 12.8334 30.4167C12.8334 29.4041 13.6542 28.5833 14.6667 28.5833C15.6793 28.5833 16.5001 29.4041 16.5001 30.4167C16.5001 31.4292 15.6793 32.25 14.6667 32.25ZM19.3837 33.2466C19.8809 32.4198 20.1667 31.4516 20.1667 30.4167C20.1667 27.379 17.7043 24.9167 14.6667 24.9167C11.6292 24.9167 9.16675 27.379 9.16675 30.4167C9.16675 33.1108 11.1039 35.3526 13.6613 35.825L10.9621 40.5H15.196L19.3837 33.2466Z" fill="#404040"/>
</svg>
